<svg width="29" height="30" viewBox="0 0 29 30" fill="none" xmlns="http://www.w3.org/2000/svg">
<g clip-path="url(#clip0_187_4)">
<path d="M0.228149 2.54598C0.228149 1.41181 1.17766 0.491211 2.34814 0.491211H26.793C27.9639 0.491211 28.9129 1.41181 28.9129 2.54598V27.1216C28.9129 28.2561 27.9639 29.176 26.793 29.176H2.34814C1.17777 29.176 0.228149 28.2562 0.228149 27.1219V2.54565V2.54598Z" fill="#111112"/>
<path d="M8.9452 24.4972V11.5832H4.65279V24.4972H8.94565H8.9452ZM6.79989 9.8203C8.29643 9.8203 9.22813 8.82866 9.22813 7.58939C9.20011 6.32188 8.29643 5.35791 6.82835 5.35791C5.35926 5.35791 4.39978 6.32188 4.39978 7.58927C4.39978 8.82855 5.33114 9.82019 6.77177 9.82019H6.79956L6.79989 9.8203ZM11.3211 24.4972H15.6132V17.2862C15.6132 16.9007 15.6412 16.5143 15.7546 16.239C16.0647 15.4675 16.771 14.6689 17.957 14.6689C19.5098 14.6689 20.1314 15.8531 20.1314 17.5893V24.4972H24.4233V17.0927C24.4233 13.1262 22.306 11.2804 19.482 11.2804C17.1668 11.2804 16.1499 12.5745 15.5849 13.4559H15.6135V11.5836H11.3213C11.3774 12.7951 11.321 24.4976 11.321 24.4976L11.3211 24.4972Z" fill="white"/>
</g>
<defs>
<clipPath id="clip0_187_4">
<rect width="28.6848" height="28.8" fill="white" transform="translate(0.228149 0.433594)"/>
</clipPath>
</defs>
</svg>
