<svg width="30" height="30" viewBox="0 0 30 30" fill="none" xmlns="http://www.w3.org/2000/svg">
<g clip-path="url(#clip0_188_10)">
<path fill-rule="evenodd" clip-rule="evenodd" d="M25.4079 4.61887C22.7127 1.9214 19.1283 0.43511 15.3095 0.433594C7.44093 0.433594 1.03691 6.83517 1.03376 14.7037C1.03271 17.219 1.6901 19.6742 2.93929 21.8383L0.914062 29.2336L8.48183 27.2491C10.5669 28.386 12.9145 28.9851 15.3038 28.9862H15.3096C23.1774 28.9862 29.582 22.5838 29.5851 14.7151C29.5867 10.9019 28.1032 7.31633 25.4079 4.61887ZM15.3096 26.5758H15.3048C13.1757 26.575 11.0874 26.0032 9.26571 24.9225L8.83241 24.6654L4.34165 25.8431L5.54034 21.466L5.25818 21.0172C4.07045 19.1287 3.44312 16.9458 3.44405 14.7046C3.44665 8.1646 8.76947 2.84388 15.3143 2.84388C18.4835 2.84509 21.4627 4.08052 23.7029 6.32255C25.9431 8.56459 27.1761 11.5448 27.1749 14.7142C27.1722 21.2547 21.8494 26.5758 15.3096 26.5758ZM21.818 17.6922C21.4613 17.5137 19.7076 16.651 19.3806 16.532C19.0537 16.413 18.8159 16.3536 18.5781 16.7105C18.3403 17.0675 17.6567 17.8707 17.4486 18.1087C17.2405 18.3467 17.0325 18.3764 16.6758 18.1979C16.3191 18.0195 15.1698 17.6429 13.8073 16.4281C12.7469 15.4826 12.031 14.3148 11.823 13.9578C11.6149 13.6008 11.8008 13.4078 11.9794 13.2301C12.1398 13.0703 12.3361 12.8136 12.5144 12.6054C12.6928 12.3971 12.7522 12.2484 12.8711 12.0104C12.99 11.7724 12.9306 11.5642 12.8414 11.3857C12.7522 11.2072 12.0389 9.45208 11.7416 8.73813C11.4521 8.0428 11.158 8.13688 10.939 8.12599C10.7312 8.11565 10.4932 8.11344 10.2554 8.11344C10.0176 8.11344 9.63118 8.20269 9.3042 8.55965C8.97726 8.91665 8.05583 9.77934 8.05583 11.5345C8.05583 13.2896 9.33394 14.9852 9.5123 15.2232C9.69062 15.4612 12.0275 19.063 15.6057 20.6075C16.4567 20.9749 17.1212 21.1943 17.6392 21.3587C18.4937 21.63 19.2713 21.5917 19.8859 21.4999C20.5712 21.3976 21.9963 20.6373 22.2936 19.8043C22.5908 18.9714 22.5908 18.2574 22.5016 18.1087C22.4125 17.96 22.1747 17.8707 21.818 17.6922Z" fill="black"/>
</g>
<defs>
<clipPath id="clip0_188_10">
<rect width="28.6733" height="28.8" fill="white" transform="translate(0.912964 0.433594)"/>
</clipPath>
</defs>
</svg>
